<svg width="20" height="20" viewBox="0 0 20 20" fill="none" xmlns="http://www.w3.org/2000/svg">
<path fill-rule="evenodd" clip-rule="evenodd" d="M5 5.83334C5 3.07192 7.23857 0.833344 10 0.833344C12.7614 0.833344 15 3.07192 15 5.83334V10C15 12.7614 12.7614 15 10 15C7.23857 15 5 12.7614 5 10V5.83334ZM10.625 4.79168C10.625 4.4465 10.3452 4.16668 10 4.16668C9.65483 4.16668 9.375 4.4465 9.375 4.79168V6.87501C9.375 7.22019 9.65483 7.50001 10 7.50001C10.3452 7.50001 10.625 7.22019 10.625 6.87501V4.79168Z" fill="#A6A6A6"/>
<path fill-rule="evenodd" clip-rule="evenodd" d="M6.98003 16.5284C7.17151 16.2411 7.55955 16.1636 7.84675 16.3551L9.42223 17.4054C9.77215 17.6386 10.228 17.6386 10.5779 17.4054L12.1534 16.3551C12.4406 16.1636 12.8286 16.2411 13.0201 16.5284C13.2116 16.8156 13.134 17.2036 12.8467 17.3951L11.2712 18.4454C10.5015 18.9586 9.49865 18.9586 8.7289 18.4454L7.15337 17.3951C6.86617 17.2036 6.78857 16.8156 6.98003 16.5284Z" fill="#A6A6A6"/>
</svg>
