<svg width="20" height="20" viewBox="0 0 20 20" fill="none" xmlns="http://www.w3.org/2000/svg">
<path fill-rule="evenodd" clip-rule="evenodd" d="M9.375 11.628C6.90856 11.3204 5 9.21637 5 6.66664V3.44674C5 2.67084 5.78364 2.14029 6.50405 2.42845L7.42575 2.79713C7.59924 2.86652 7.79664 2.83727 7.94255 2.72055L8.82867 2.01162C9.5135 1.4638 10.4865 1.4638 11.1713 2.01162L12.0574 2.72055C12.2033 2.83727 12.4007 2.86652 12.5742 2.79713L13.4959 2.42845C14.2163 2.14029 15 2.67084 15 3.44674V6.66664C15 9.21637 13.0914 11.3204 10.625 11.628V13.7206C11.5242 12.7157 12.8311 12.0833 14.2858 12.0833C14.5435 12.0833 14.7972 12.1032 15.0449 12.1417C15.3138 12.1835 15.5248 12.3945 15.5666 12.6634C15.6051 12.9111 15.625 13.1648 15.625 13.4225C15.625 16.1347 13.4264 18.3333 10.7142 18.3333C10.536 18.3333 10.3597 18.3238 10.186 18.3051C10.1272 18.3235 10.0647 18.3333 10 18.3333C9.93525 18.3333 9.87275 18.3235 9.814 18.3051C9.64025 18.3238 9.464 18.3333 9.28575 18.3333C6.5736 18.3333 4.375 16.1347 4.375 13.4225C4.375 13.1648 4.39492 12.9111 4.43342 12.6634C4.4752 12.3945 4.68617 12.1835 4.95507 12.1417C5.20287 12.1032 5.45646 12.0833 5.71428 12.0833C7.1689 12.0833 8.47583 12.7157 9.375 13.7206V11.628ZM5.71428 13.3333C7.73604 13.3333 9.375 14.9722 9.375 16.994C9.375 17.0235 9.37467 17.053 9.374 17.0823C9.34467 17.083 9.31525 17.0833 9.28575 17.0833C7.26396 17.0833 5.625 15.4444 5.625 13.4225C5.625 13.393 5.62535 13.3636 5.62604 13.3343C5.65537 13.3336 5.68478 13.3333 5.71428 13.3333ZM10.626 17.0823C10.6253 17.053 10.625 17.0235 10.625 16.994C10.625 14.9722 12.2639 13.3333 14.2858 13.3333C14.3153 13.3333 14.3447 13.3336 14.374 13.3343C14.3747 13.3636 14.375 13.393 14.375 13.4225C14.375 15.4444 12.7361 17.0833 10.7142 17.0833C10.6847 17.0833 10.6553 17.083 10.626 17.0823Z" fill="black" fill-opacity="0.8"/>
</svg>
