<svg width="20" height="20" viewBox="0 0 20 20" fill="none" xmlns="http://www.w3.org/2000/svg">
<path fill-rule="evenodd" clip-rule="evenodd" d="M2.38374 5.68106C2.81301 5.84702 3.02648 6.32955 2.86052 6.75882C2.37972 8.00253 2.37972 9.0808 2.86052 10.3245C3.02648 10.7538 2.81301 11.2363 2.38374 11.4023C1.95446 11.5682 1.47193 11.3548 1.30598 10.9255C0.675676 9.29508 0.675676 7.78826 1.30598 6.15785C1.47193 5.72857 1.95446 5.51511 2.38374 5.68106Z" fill="#A6A6A6"/>
<path d="M9.48913 6.84768L13.5557 4.41306C14.9032 3.6063 16.6263 4.08507 17.4043 5.48242L18.2632 7.02514C20.1229 10.3652 19.0193 14.6361 15.7983 16.5644C13.633 17.8608 10.9533 17.8064 8.83853 16.4232L4.19566 13.3865C3.92388 13.2087 3.78012 12.8893 3.82732 12.568L3.91982 11.9382C4.07601 10.8748 5.03396 10.144 6.05947 10.3059L7.17503 10.4821L4.35764 5.42187C3.83898 4.4903 4.14678 3.29911 5.04513 2.76127C5.94349 2.22343 7.09221 2.5426 7.61088 3.47417L9.48913 6.84768Z" fill="#A6A6A6"/>
</svg>
