<svg width="20" height="20" viewBox="0 0 20 20" fill="none" xmlns="http://www.w3.org/2000/svg">
<path d="M10.0007 10C12.7622 10 15.0007 12.2386 15.0007 15C15.0007 15.9205 14.2546 16.6667 13.3341 16.6667H6.6674C5.74692 16.6667 5.00073 15.9205 5.00073 15C5.00073 12.2386 7.23931 10 10.0007 10Z" fill="#153CFF"/>
<path d="M5.34326 10.8333C4.35328 11.9392 3.75065 13.399 3.75065 15V15.8333H2.29232C0.911608 15.8333 -0.271423 14.6631 0.28867 13.4011C0.94345 11.9257 2.2428 10.8333 4.16732 10.8333H5.34326Z" fill="#153CFF"/>
<path d="M15.8342 10.8333C17.7587 10.8333 19.058 11.9257 19.7129 13.4011C20.273 14.6631 19.0899 15.8333 17.7092 15.8333H16.2509V15C16.2509 13.399 15.6482 11.9392 14.6582 10.8333H15.8342Z" fill="#153CFF"/>
<path d="M3.7509 5.20833C5.01655 5.20833 6.04256 6.23434 6.04256 7.5C6.04256 8.76566 5.01655 9.79166 3.7509 9.79166C2.48525 9.79166 1.45923 8.76566 1.45923 7.5C1.45923 6.23434 2.48525 5.20833 3.7509 5.20833Z" fill="#153CFF"/>
<path d="M16.2509 5.20833C17.5166 5.20833 18.5426 6.23434 18.5426 7.5C18.5426 8.76566 17.5166 9.79166 16.2509 9.79166C14.9852 9.79166 13.9592 8.76566 13.9592 7.5C13.9592 6.23434 14.9852 5.20833 16.2509 5.20833Z" fill="#153CFF"/>
<path d="M10.0009 2.91667C11.6117 2.91667 12.9176 4.22251 12.9176 5.83334C12.9176 7.44417 11.6117 8.75001 10.0009 8.75001C8.39008 8.75001 7.08423 7.44417 7.08423 5.83334C7.08423 4.22251 8.39008 2.91667 10.0009 2.91667Z" fill="#153CFF"/>
</svg>
