<svg width="20" height="20" viewBox="0 0 20 20" fill="none" xmlns="http://www.w3.org/2000/svg">
<path d="M15.9637 8.33333C17.4663 8.33333 18.5629 9.75541 18.1806 11.2085L16.9745 15.7918C16.7095 16.7985 15.7987 17.5 14.7577 17.5H5.24436C4.20344 17.4999 3.29254 16.7984 3.02757 15.7918L1.82151 11.2085C1.43915 9.75541 2.53581 8.33341 4.03831 8.33333H15.9637Z" fill="#0D0D0D" fill-opacity="0.8"/>
<path d="M16.0425 5.41667C16.3878 5.41667 16.6675 5.6965 16.6675 6.04167C16.6675 6.38685 16.3878 6.66667 16.0425 6.66667H3.95923C3.61412 6.66659 3.33423 6.3868 3.33423 6.04167C3.33423 5.69655 3.61412 5.41676 3.95923 5.41667H16.0425Z" fill="#0D0D0D" fill-opacity="0.8"/>
<path d="M14.3757 2.5C14.7209 2.5 15.0007 2.77983 15.0007 3.125C15.0007 3.47017 14.7209 3.75 14.3757 3.75H5.62573C5.28062 3.74992 5.00073 3.47012 5.00073 3.125C5.00073 2.77987 5.28062 2.50008 5.62573 2.5H14.3757Z" fill="#0D0D0D" fill-opacity="0.8"/>
</svg>
